<svg xmlns="http://www.w3.org/2000/svg" version="1.1" xmlns:xlink="http://www.w3.org/1999/xlink" xmlns:svgjs="http://svgjs.com/svgjs" width="1440" height="280" preserveAspectRatio="none" viewBox="0 0 1440 280">
	<g mask="url(&quot;#SvgjsMask1291&quot;)" fill="none">
		<path d="M1488 280L0 280 L0 147.95Q49.63 125.58, 72 175.22Q138.53 121.76, 192 188.29Q235.78 112.07, 312 155.84Q333.67 105.51, 384 127.18Q449.18 72.36, 504 137.54Q588.49 102.03, 624 186.52Q671.52 114.04, 744 161.56Q797 94.56, 864 147.55Q889.29 100.84, 936 126.14Q1001.21 71.34, 1056 136.55Q1129.35 89.9, 1176 163.25Q1204.85 120.1, 1248 148.95Q1322.06 103.01, 1368 177.07Q1437.3 126.37, 1488 195.66z" fill="rgba(64, 19, 40, 1)"></path>
		<path d="M1512 280L0 280 L0 233.3Q30.64 191.94, 72 222.59Q90.22 168.81, 144 187.02Q185.67 156.69, 216 198.37Q272.36 182.73, 288 239.08Q333.04 164.12, 408 209.16Q434.65 163.81, 480 190.46Q537.18 175.64, 552 232.82Q577.25 186.07, 624 211.33Q643.16 158.5, 696 177.66Q779.66 141.32, 816 224.99Q846.4 183.39, 888 213.79Q934.9 140.69, 1008 187.6Q1091.53 151.13, 1128 234.65Q1157.87 192.51, 1200 222.38Q1242.65 145.03, 1320 187.69Q1404.28 151.97, 1440 236.25Q1466.55 190.8, 1512 217.34z" fill="rgba(166, 46, 68, 1)"></path>
		<path d="M1536 280L0 280 L0 272.98Q42.06 195.05, 120 237.11Q168 213.11, 192 261.11Q260.91 210.02, 312 278.94Q331.63 226.56, 384 246.19Q466.23 208.42, 504 290.65Q532.37 247.01, 576 275.38Q588.73 216.11, 648 228.83Q692.99 201.81, 720 246.8Q801.97 208.77, 840 290.74Q883.71 214.45, 960 258.16Q1006.78 232.95, 1032 279.73Q1048.99 224.72, 1104 241.71Q1169.65 187.36, 1224 253.01Q1294.97 203.98, 1344 274.95Q1386.74 245.69, 1416 288.43Q1448.68 201.12, 1536 233.8z" fill="rgba(242, 214, 189, 1)"></path>
	</g>
	<defs>
		<mask id="SvgjsMask1291">
			<rect width="1440" height="280" fill="#ffffff"></rect>
		</mask>
	</defs>
</svg>