<svg id="visual" viewBox="0 0 900 100" width="900" height="100" xmlns="http://www.w3.org/2000/svg" xmlns:xlink="http://www.w3.org/1999/xlink" version="1.1"><path d="M0 54L129 63L257 74L386 51L514 54L643 56L771 79L900 51L900 0L771 0L643 0L514 0L386 0L257 0L129 0L0 0Z" fill="#ffffff"></path><path d="M0 41L129 55L257 44L386 62L514 53L643 47L771 47L900 62L900 0L771 0L643 0L514 0L386 0L257 0L129 0L0 0Z" fill="#fff7cd"></path><path d="M0 34L129 49L257 36L386 43L514 48L643 52L771 49L900 47L900 0L771 0L643 0L514 0L386 0L257 0L129 0L0 0Z" fill="#fff09a"></path><path d="M0 38L129 18L257 27L386 24L514 33L643 31L771 22L900 20L900 0L771 0L643 0L514 0L386 0L257 0L129 0L0 0Z" fill="#fee963"></path><path d="M0 20L129 9L257 24L386 20L514 22L643 16L771 14L900 22L900 0L771 0L643 0L514 0L386 0L257 0L129 0L0 0Z" fill="#fce205"></path></svg>