<svg id="visual" viewBox="0 0 900 100" width="900" height="100" xmlns="http://www.w3.org/2000/svg" xmlns:xlink="http://www.w3.org/1999/xlink" version="1.1"><path d="M0 81L21.5 80.2C43 79.3 86 77.7 128.8 75.7C171.7 73.7 214.3 71.3 257.2 72.2C300 73 343 77 385.8 78.8C428.7 80.7 471.3 80.3 514.2 76.2C557 72 600 64 642.8 62.7C685.7 61.3 728.3 66.7 771.2 66C814 65.3 857 58.7 878.5 55.3L900 52L900 0L878.5 0C857 0 814 0 771.2 0C728.3 0 685.7 0 642.8 0C600 0 557 0 514.2 0C471.3 0 428.7 0 385.8 0C343 0 300 0 257.2 0C214.3 0 171.7 0 128.8 0C86 0 43 0 21.5 0L0 0Z" fill="#ffffff"></path><path d="M0 42L21.5 44.5C43 47 86 52 128.8 55.2C171.7 58.3 214.3 59.7 257.2 59C300 58.3 343 55.7 385.8 53.5C428.7 51.3 471.3 49.7 514.2 50.7C557 51.7 600 55.3 642.8 56.5C685.7 57.7 728.3 56.3 771.2 53.5C814 50.7 857 46.3 878.5 44.2L900 42L900 0L878.5 0C857 0 814 0 771.2 0C728.3 0 685.7 0 642.8 0C600 0 557 0 514.2 0C471.3 0 428.7 0 385.8 0C343 0 300 0 257.2 0C214.3 0 171.7 0 128.8 0C86 0 43 0 21.5 0L0 0Z" fill="#d0e8e8"></path><path d="M0 46L21.5 44.5C43 43 86 40 128.8 40C171.7 40 214.3 43 257.2 42.5C300 42 343 38 385.8 38.8C428.7 39.7 471.3 45.3 514.2 44.7C557 44 600 37 642.8 34.2C685.7 31.3 728.3 32.7 771.2 32.8C814 33 857 32 878.5 31.5L900 31L900 0L878.5 0C857 0 814 0 771.2 0C728.3 0 685.7 0 642.8 0C600 0 557 0 514.2 0C471.3 0 428.7 0 385.8 0C343 0 300 0 257.2 0C214.3 0 171.7 0 128.8 0C86 0 43 0 21.5 0L0 0Z" fill="#a1d2d2"></path><path d="M0 33L21.5 33.7C43 34.3 86 35.7 128.8 36.3C171.7 37 214.3 37 257.2 36.3C300 35.7 343 34.3 385.8 32.5C428.7 30.7 471.3 28.3 514.2 28.2C557 28 600 30 642.8 29.7C685.7 29.3 728.3 26.7 771.2 26.2C814 25.7 857 27.3 878.5 28.2L900 29L900 0L878.5 0C857 0 814 0 771.2 0C728.3 0 685.7 0 642.8 0C600 0 557 0 514.2 0C471.3 0 428.7 0 385.8 0C343 0 300 0 257.2 0C214.3 0 171.7 0 128.8 0C86 0 43 0 21.5 0L0 0Z" fill="#6dbcbc"></path><path d="M0 11L21.5 11.3C43 11.7 86 12.3 128.8 13C171.7 13.7 214.3 14.3 257.2 14.8C300 15.3 343 15.7 385.8 14.5C428.7 13.3 471.3 10.7 514.2 11.5C557 12.3 600 16.7 642.8 17.8C685.7 19 728.3 17 771.2 17.3C814 17.7 857 20.3 878.5 21.7L900 23L900 0L878.5 0C857 0 814 0 771.2 0C728.3 0 685.7 0 642.8 0C600 0 557 0 514.2 0C471.3 0 428.7 0 385.8 0C343 0 300 0 257.2 0C214.3 0 171.7 0 128.8 0C86 0 43 0 21.5 0L0 0Z" fill="#26a6a6"></path></svg>